<svg width="56" height="57" viewBox="0 0 56 57" fill="none" xmlns="http://www.w3.org/2000/svg">
<path opacity="0.3" d="M28.0005 56.996C43.4645 56.996 56.0005 44.46 56.0005 28.996C56.0005 13.5321 43.4645 0.996033 28.0005 0.996033C12.5365 0.996033 0.000488281 13.5321 0.000488281 28.996C0.000488281 44.46 12.5365 56.996 28.0005 56.996Z" fill="white"/>
<path opacity="0.6" d="M43.3708 41.9836C45.6479 39.9233 46.8407 36.8872 46.8407 32.8752V18.9958H8.67239L13.0097 27.7789H24.2867V33.3089C24.2867 34.9354 24.5035 36.5619 25.0457 38.1884L40.2263 44.0438C41.3106 43.5016 42.3949 42.851 43.3708 41.9836ZM32.5276 34.6101C31.6601 33.8511 31.3348 32.5499 31.3348 30.7066V27.7789H39.6841V30.7066C39.7925 32.1162 39.4672 33.4174 38.5998 34.5017C37.8408 35.2607 36.648 35.6945 35.5637 35.586C34.4793 35.586 33.395 35.2607 32.5276 34.6101Z" fill="white"/>
<path d="M27.7565 41.9836C30.0336 39.9233 31.2264 36.8872 31.2264 32.8752V27.6705H39.6841L8.67239 18.9958V27.7789V33.3089C8.67239 34.9354 8.88926 36.5619 9.32299 38.1884L24.5035 44.0438C25.8047 43.5016 26.8891 42.851 27.7565 41.9836ZM17.0217 34.6101C16.1542 33.8511 15.8289 32.5499 15.8289 30.7066V27.7789H24.2867V30.7066C24.3951 32.1162 24.0698 33.4174 23.2024 34.5017C22.3349 35.2607 21.2506 35.6945 20.1662 35.586C18.9735 35.586 17.8892 35.2607 17.0217 34.6101Z" fill="white"/>
</svg>
